<mxfile host="app.diagrams.net" agent="Mozilla/5.0 (Windows NT 10.0; Win64; x64) AppleWebKit/537.36 (KHTML, like Gecko) Chrome/134.0.0.0 Safari/537.36 Edg/134.0.0.0" version="26.1.3">
  <diagram name="Page-1" id="qmDatxOl6HqxDlBA25QH">
    <mxGraphModel dx="2040" dy="1051" grid="0" gridSize="10" guides="1" tooltips="1" connect="1" arrows="1" fold="1" page="0" pageScale="1" pageWidth="850" pageHeight="1100" math="0" shadow="0">
      <root>
        <mxCell id="0" />
        <mxCell id="1" parent="0" />
        <mxCell id="I1SLYxGWvdEMF7dLtvF2-12" value="&lt;b&gt;Yếu tố Cá nhân&lt;br&gt;(Personal Factors)&lt;/b&gt;&lt;div&gt;&lt;br&gt;&lt;/div&gt;&lt;div&gt;- Mức độ căng thẳng&lt;/div&gt;&lt;div&gt;- Nhận thức về sức khỏe&lt;/div&gt;&lt;div&gt;- Thu nhập&lt;/div&gt;&lt;div&gt;- Nhận thức về cân bằng CV-CS&lt;/div&gt;" style="rounded=0;whiteSpace=wrap;html=1;align=left;verticalAlign=top;spacingLeft=4;fillColor=#dae8fc;strokeColor=#6c8ebf;" vertex="1" parent="1">
          <mxGeometry x="40" y="60" width="220" height="130" as="geometry" />
        </mxCell>
        <mxCell id="I1SLYxGWvdEMF7dLtvF2-13" value="&lt;b&gt;Yếu tố Liên quan Dịch vụ&lt;br&gt;(Service-Related Factors)&lt;/b&gt;&lt;div&gt;&lt;br&gt;&lt;/div&gt;&lt;div&gt;- Giá cả &amp;amp; Khả năng chi trả&lt;/div&gt;&lt;div&gt;- Chất lượng dịch vụ&lt;/div&gt;&lt;div&gt;- Tay nghề &amp;amp; Chuyên môn KTV&lt;/div&gt;&lt;div&gt;- Đa dạng loại hình massage&lt;/div&gt;" style="rounded=0;whiteSpace=wrap;html=1;align=left;verticalAlign=top;spacingLeft=4;fillColor=#dae8fc;strokeColor=#6c8ebf;" vertex="1" parent="1">
          <mxGeometry x="40" y="210" width="220" height="140" as="geometry" />
        </mxCell>
        <mxCell id="I1SLYxGWvdEMF7dLtvF2-14" value="&lt;b&gt;Yếu tố Tâm lý &amp;amp; Xã hội&lt;br&gt;(Psychological &amp;amp; Social Factors)&lt;/b&gt;&lt;div&gt;&lt;br&gt;&lt;/div&gt;&lt;div&gt;- Danh tiếng &amp;amp; Lòng tin&lt;/div&gt;&lt;div&gt;- Ảnh hưởng từ bạn bè/đồng nghiệp&lt;/div&gt;&lt;div&gt;- Đánh giá online &amp;amp; Truyền miệng&lt;/div&gt;" style="rounded=0;whiteSpace=wrap;html=1;align=left;verticalAlign=top;spacingLeft=4;fillColor=#dae8fc;strokeColor=#6c8ebf;" vertex="1" parent="1">
          <mxGeometry x="40" y="370" width="220" height="130" as="geometry" />
        </mxCell>
        <mxCell id="I1SLYxGWvdEMF7dLtvF2-15" value="&lt;b&gt;Yếu tố Thuận tiện &amp;amp; Tiếp cận&lt;br&gt;(Convenience &amp;amp; Accessibility Factors)&lt;/b&gt;&lt;div&gt;&lt;br&gt;&lt;/div&gt;&lt;div&gt;- Vị trí &amp;amp; Khoảng cách&lt;/div&gt;&lt;div&gt;- Hệ thống đặt lịch &amp;amp; Thời gian phục vụ&lt;/div&gt;" style="rounded=0;whiteSpace=wrap;html=1;align=left;verticalAlign=top;spacingLeft=4;fillColor=#dae8fc;strokeColor=#6c8ebf;" vertex="1" parent="1">
          <mxGeometry x="40" y="520" width="220" height="110" as="geometry" />
        </mxCell>
        <mxCell id="I1SLYxGWvdEMF7dLtvF2-16" value="&lt;b&gt;B. BIẾN PHỤ THUỘC (DV)&lt;/b&gt;&lt;div&gt;&lt;b&gt;&lt;br&gt;&lt;/b&gt;&lt;/div&gt;&lt;div&gt;&lt;b&gt;Quyết định lựa chọn&lt;/b&gt;&lt;/div&gt;&lt;div&gt;&lt;b&gt;dịch vụ massage trị liệu&lt;/b&gt;&lt;/div&gt;&lt;div&gt;(Decision to Choose Massage Therapy Services)&lt;/div&gt;" style="rounded=1;whiteSpace=wrap;html=1;fillColor=#fff2cc;strokeColor=#d6b656;shadow=1;" vertex="1" parent="1">
          <mxGeometry x="840" y="320" width="240" height="110" as="geometry" />
        </mxCell>
        <mxCell id="I1SLYxGWvdEMF7dLtvF2-17" value="" style="group" vertex="1" connectable="0" parent="1">
          <mxGeometry x="330" y="40" width="160" height="30" as="geometry" />
        </mxCell>
        <mxCell id="I1SLYxGWvdEMF7dLtvF2-18" value="&lt;b&gt;A. BIẾN ĐỘC LẬP (IVs)&lt;/b&gt;" style="text;html=1;strokeColor=none;fillColor=none;align=center;verticalAlign=middle;whiteSpace=wrap;rounded=0;" vertex="1" parent="I1SLYxGWvdEMF7dLtvF2-17">
          <mxGeometry width="160" height="30" as="geometry" />
        </mxCell>
        <mxCell id="I1SLYxGWvdEMF7dLtvF2-19" value="&lt;b&gt;D. BIẾN TRUNG GIAN (MeVs)&lt;/b&gt;&lt;div&gt;&lt;i&gt;(Mediating Variables - Potential)&lt;/i&gt;&lt;/div&gt;" style="text;html=1;strokeColor=none;fillColor=none;align=center;verticalAlign=middle;whiteSpace=wrap;rounded=0;" vertex="1" parent="1">
          <mxGeometry x="460" y="200" width="220" height="40" as="geometry" />
        </mxCell>
        <mxCell id="I1SLYxGWvdEMF7dLtvF2-20" value="&lt;b&gt;Lợi ích cảm nhận&lt;/b&gt;&lt;div&gt;(Perceived Benefit)&lt;/div&gt;" style="rounded=0;whiteSpace=wrap;html=1;fillColor=#d5e8d4;strokeColor=#82b366;" vertex="1" parent="1">
          <mxGeometry x="490" y="260" width="160" height="70" as="geometry" />
        </mxCell>
        <mxCell id="I1SLYxGWvdEMF7dLtvF2-21" value="&lt;b&gt;Sự hài lòng của khách hàng&lt;/b&gt;&lt;div&gt;(Customer Satisfaction)&lt;/div&gt;" style="rounded=0;whiteSpace=wrap;html=1;fillColor=#d5e8d4;strokeColor=#82b366;" vertex="1" parent="1">
          <mxGeometry x="490" y="420" width="160" height="70" as="geometry" />
        </mxCell>
        <mxCell id="I1SLYxGWvdEMF7dLtvF2-22" value="&lt;b&gt;C. BIẾN ĐIỀU TIẾT (MoVs)&lt;/b&gt;&lt;div&gt;&lt;i&gt;(Moderating Variables)&lt;/i&gt;&lt;/div&gt;" style="text;html=1;strokeColor=none;fillColor=none;align=center;verticalAlign=middle;whiteSpace=wrap;rounded=0;" vertex="1" parent="1">
          <mxGeometry x="460" y="560" width="220" height="40" as="geometry" />
        </mxCell>
        <mxCell id="I1SLYxGWvdEMF7dLtvF2-23" value="&lt;b&gt;Giới tính&lt;/b&gt;&lt;div&gt;(Gender)&lt;/div&gt;" style="rounded=0;whiteSpace=wrap;html=1;fillColor=#e1d5e7;strokeColor=#9673a6;" vertex="1" parent="1">
          <mxGeometry x="440" y="620" width="120" height="60" as="geometry" />
        </mxCell>
        <mxCell id="I1SLYxGWvdEMF7dLtvF2-24" value="&lt;b&gt;Nhóm tuổi&lt;/b&gt;&lt;div&gt;(Age group)&lt;/div&gt;" style="rounded=0;whiteSpace=wrap;html=1;fillColor=#e1d5e7;strokeColor=#9673a6;" vertex="1" parent="1">
          <mxGeometry x="590" y="620" width="120" height="60" as="geometry" />
        </mxCell>
        <mxCell id="I1SLYxGWvdEMF7dLtvF2-25" value="" style="endArrow=classic;html=1;rounded=0;exitX=1;exitY=0.5;exitDx=0;exitDy=0;entryX=0;entryY=0.5;entryDx=0;entryDy=0;" edge="1" parent="1" source="I1SLYxGWvdEMF7dLtvF2-12" target="I1SLYxGWvdEMF7dLtvF2-20">
          <mxGeometry width="50" height="50" relative="1" as="geometry">
            <mxPoint x="400" y="350" as="sourcePoint" />
            <mxPoint x="450" y="300" as="targetPoint" />
            <Array as="points">
              <mxPoint x="375" y="125" />
              <mxPoint x="375" y="295" />
            </Array>
          </mxGeometry>
        </mxCell>
        <mxCell id="I1SLYxGWvdEMF7dLtvF2-26" value="" style="endArrow=classic;html=1;rounded=0;exitX=1;exitY=0.5;exitDx=0;exitDy=0;" edge="1" parent="1" source="I1SLYxGWvdEMF7dLtvF2-13">
          <mxGeometry width="50" height="50" relative="1" as="geometry">
            <mxPoint x="270" y="280" as="sourcePoint" />
            <mxPoint x="490" y="295" as="targetPoint" />
          </mxGeometry>
        </mxCell>
        <mxCell id="I1SLYxGWvdEMF7dLtvF2-27" value="" style="endArrow=classic;html=1;rounded=0;exitX=1;exitY=0.5;exitDx=0;exitDy=0;entryX=0;entryY=0.5;entryDx=0;entryDy=0;" edge="1" parent="1" source="I1SLYxGWvdEMF7dLtvF2-14" target="I1SLYxGWvdEMF7dLtvF2-20">
          <mxGeometry width="50" height="50" relative="1" as="geometry">
            <mxPoint x="270" y="435" as="sourcePoint" />
            <mxPoint x="490" y="455" as="targetPoint" />
            <Array as="points">
              <mxPoint x="375" y="435" />
              <mxPoint x="375" y="295" />
            </Array>
          </mxGeometry>
        </mxCell>
        <mxCell id="I1SLYxGWvdEMF7dLtvF2-28" value="" style="endArrow=classic;html=1;rounded=0;exitX=1;exitY=0.5;exitDx=0;exitDy=0;entryX=0;entryY=0.5;entryDx=0;entryDy=0;" edge="1" parent="1" source="I1SLYxGWvdEMF7dLtvF2-13" target="I1SLYxGWvdEMF7dLtvF2-21">
          <mxGeometry width="50" height="50" relative="1" as="geometry">
            <mxPoint x="270" y="280" as="sourcePoint" />
            <mxPoint x="490" y="455" as="targetPoint" />
          </mxGeometry>
        </mxCell>
        <mxCell id="I1SLYxGWvdEMF7dLtvF2-29" value="" style="endArrow=classic;html=1;rounded=0;exitX=1;exitY=0.5;exitDx=0;exitDy=0;entryX=0;entryY=0.5;entryDx=0;entryDy=0;" edge="1" parent="1" source="I1SLYxGWvdEMF7dLtvF2-15" target="I1SLYxGWvdEMF7dLtvF2-21">
          <mxGeometry width="50" height="50" relative="1" as="geometry">
            <mxPoint x="270" y="575" as="sourcePoint" />
            <mxPoint x="490" y="455" as="targetPoint" />
            <Array as="points">
              <mxPoint x="375" y="575" />
              <mxPoint x="375" y="455" />
            </Array>
          </mxGeometry>
        </mxCell>
        <mxCell id="I1SLYxGWvdEMF7dLtvF2-30" value="" style="endArrow=classic;html=1;rounded=0;exitX=1;exitY=0.5;exitDx=0;exitDy=0;entryX=0;entryY=0.5;entryDx=0;entryDy=0;" edge="1" parent="1" source="I1SLYxGWvdEMF7dLtvF2-20" target="I1SLYxGWvdEMF7dLtvF2-16">
          <mxGeometry width="50" height="50" relative="1" as="geometry">
            <mxPoint x="660" y="300" as="sourcePoint" />
            <mxPoint x="840" y="375" as="targetPoint" />
            <Array as="points">
              <mxPoint x="750" y="295" />
              <mxPoint x="750" y="375" />
            </Array>
          </mxGeometry>
        </mxCell>
        <mxCell id="I1SLYxGWvdEMF7dLtvF2-31" value="" style="endArrow=classic;html=1;rounded=0;exitX=1;exitY=0.5;exitDx=0;exitDy=0;entryX=0;entryY=0.5;entryDx=0;entryDy=0;" edge="1" parent="1" source="I1SLYxGWvdEMF7dLtvF2-21" target="I1SLYxGWvdEMF7dLtvF2-16">
          <mxGeometry width="50" height="50" relative="1" as="geometry">
            <mxPoint x="660" y="455" as="sourcePoint" />
            <mxPoint x="840" y="375" as="targetPoint" />
            <Array as="points">
              <mxPoint x="750" y="455" />
              <mxPoint x="750" y="375" />
            </Array>
          </mxGeometry>
        </mxCell>
        <mxCell id="I1SLYxGWvdEMF7dLtvF2-32" value="Điều tiết" style="endArrow=classic;html=1;rounded=0;entryX=0.5;entryY=1;entryDx=0;entryDy=0;dashed=1;" edge="1" parent="1" target="I1SLYxGWvdEMF7dLtvF2-16">
          <mxGeometry width="50" height="50" relative="1" as="geometry">
            <mxPoint x="500" y="620" as="sourcePoint" />
            <mxPoint x="960" y="440" as="targetPoint" />
            <Array as="points">
              <mxPoint x="500" y="540" />
              <mxPoint x="960" y="540" />
            </Array>
          </mxGeometry>
        </mxCell>
        <mxCell id="I1SLYxGWvdEMF7dLtvF2-33" value="Điều tiết" style="endArrow=classic;html=1;rounded=0;entryX=0.5;entryY=1;entryDx=0;entryDy=0;dashed=1;" edge="1" parent="1">
          <mxGeometry width="50" height="50" relative="1" as="geometry">
            <mxPoint x="650" y="620" as="sourcePoint" />
            <mxPoint x="960" y="430" as="targetPoint" />
            <Array as="points">
              <mxPoint x="650" y="540" />
              <mxPoint x="960" y="540" />
            </Array>
          </mxGeometry>
        </mxCell>
        <mxCell id="I1SLYxGWvdEMF7dLtvF2-34" value="Tác động trực tiếp (có thể có)" style="endArrow=classic;html=1;rounded=0;exitX=0.5;exitY=0;exitDx=0;exitDy=0;entryX=0;entryY=0.25;entryDx=0;entryDy=0;dashed=1;dashPattern=1 4;" edge="1" parent="1" source="I1SLYxGWvdEMF7dLtvF2-12" target="I1SLYxGWvdEMF7dLtvF2-16">
          <mxGeometry width="50" height="50" relative="1" as="geometry">
            <mxPoint x="150" y="50" as="sourcePoint" />
            <mxPoint x="840" y="347.5" as="targetPoint" />
            <Array as="points">
              <mxPoint x="150" y="30" />
              <mxPoint x="800" y="30" />
              <mxPoint x="800" y="347" />
            </Array>
          </mxGeometry>
        </mxCell>
        <mxCell id="I1SLYxGWvdEMF7dLtvF2-35" value="Tác động trực tiếp (có thể có)" style="endArrow=classic;html=1;rounded=0;exitX=0.5;exitY=1;exitDx=0;exitDy=0;entryX=0;entryY=0.75;entryDx=0;entryDy=0;dashed=1;dashPattern=1 4;" edge="1" parent="1" source="I1SLYxGWvdEMF7dLtvF2-15" target="I1SLYxGWvdEMF7dLtvF2-16">
          <mxGeometry x="-0.0867" y="-42" width="50" height="50" relative="1" as="geometry">
            <mxPoint x="150" y="640" as="sourcePoint" />
            <mxPoint x="840" y="402.5" as="targetPoint" />
            <Array as="points">
              <mxPoint x="150" y="650" />
              <mxPoint x="800" y="650" />
              <mxPoint x="800" y="403" />
            </Array>
            <mxPoint x="1" as="offset" />
          </mxGeometry>
        </mxCell>
        <mxCell id="I1SLYxGWvdEMF7dLtvF2-36" value="&lt;b&gt;&lt;font style=&quot;&quot;&gt;&lt;div style=&quot;text-align: center;&quot;&gt;&lt;b style=&quot;background-color: transparent; color: light-dark(rgb(0, 0, 0), rgb(255, 255, 255));&quot;&gt;&lt;font style=&quot;&quot;&gt;&lt;font face=&quot;Times New Roman&quot; style=&quot;font-size: 18px;&quot;&gt;&amp;nbsp; &amp;nbsp; &amp;nbsp; &amp;nbsp; &amp;nbsp; &amp;nbsp; &amp;nbsp; &amp;nbsp; &amp;nbsp; &amp;nbsp; &amp;nbsp; Personal Factors&lt;/font&gt;&lt;/font&gt;&lt;/b&gt;&lt;/div&gt;&lt;/font&gt;&lt;/b&gt;&lt;div&gt;&lt;font face=&quot;Times New Roman&quot; size=&quot;3&quot;&gt;&lt;i&gt;1. Stress level&lt;/i&gt;&lt;/font&gt;&lt;/div&gt;&lt;div&gt;&lt;font face=&quot;Times New Roman&quot; size=&quot;3&quot;&gt;&lt;i&gt;2. Health awareness&lt;/i&gt;&lt;/font&gt;&lt;/div&gt;&lt;div&gt;&lt;font face=&quot;Times New Roman&quot; size=&quot;3&quot;&gt;&lt;i&gt;3. Income level&lt;/i&gt;&lt;/font&gt;&lt;/div&gt;&lt;div&gt;&lt;font face=&quot;Times New Roman&quot; size=&quot;3&quot;&gt;&lt;i style=&quot;&quot;&gt;4. Work-life balance perception&lt;/i&gt;&lt;/font&gt;&lt;/div&gt;" style="rounded=0;whiteSpace=wrap;html=1;align=left;verticalAlign=top;spacingLeft=4;fillColor=#FFFFFF;strokeColor=#000000;strokeWidth=3;" vertex="1" parent="1">
          <mxGeometry x="161" y="1280" width="339" height="120" as="geometry" />
        </mxCell>
        <mxCell id="I1SLYxGWvdEMF7dLtvF2-37" value="&lt;div style=&quot;text-align: center;&quot;&gt;&lt;b style=&quot;background-color: transparent; color: light-dark(rgb(0, 0, 0), rgb(255, 255, 255));&quot;&gt;&lt;font face=&quot;Times New Roman&quot; style=&quot;font-size: 18px;&quot;&gt;&amp;nbsp;&amp;nbsp;&lt;span style=&quot;white-space: pre;&quot;&gt;&#x9;&lt;/span&gt;&amp;nbsp; &amp;nbsp; &amp;nbsp; &amp;nbsp; Service-Related Factors&lt;/font&gt;&lt;/b&gt;&lt;/div&gt;&lt;div&gt;&lt;font face=&quot;Times New Roman&quot; size=&quot;3&quot;&gt;&lt;i&gt;1. Price &amp;amp; Affordability&lt;/i&gt;&lt;/font&gt;&lt;/div&gt;&lt;div&gt;&lt;font face=&quot;Times New Roman&quot; size=&quot;3&quot;&gt;&lt;i&gt;2. Service Quality&lt;/i&gt;&lt;/font&gt;&lt;/div&gt;&lt;div&gt;&lt;font face=&quot;Times New Roman&quot; size=&quot;3&quot;&gt;&lt;i&gt;3. Therapist expertise&lt;/i&gt;&lt;/font&gt;&lt;/div&gt;&lt;div&gt;&lt;font face=&quot;Times New Roman&quot; size=&quot;3&quot;&gt;&lt;i&gt;4. Variety of massage types&lt;/i&gt;&lt;/font&gt;&lt;/div&gt;" style="rounded=0;whiteSpace=wrap;html=1;align=left;verticalAlign=top;spacingLeft=4;fillColor=#FFFFFF;strokeColor=#000000;strokeWidth=3;" vertex="1" parent="1">
          <mxGeometry x="159.5" y="1480" width="340.5" height="120" as="geometry" />
        </mxCell>
        <mxCell id="I1SLYxGWvdEMF7dLtvF2-38" value="&lt;b&gt;&lt;font face=&quot;Times New Roman&quot; style=&quot;font-size: 18px;&quot;&gt;&amp;nbsp; &amp;nbsp; &amp;nbsp; &amp;nbsp; &amp;nbsp; Psychological &amp;amp; Social Factors&lt;/font&gt;&lt;/b&gt;&lt;div&gt;&lt;font face=&quot;Times New Roman&quot; size=&quot;3&quot;&gt;&lt;i&gt;1. Brand reputation &amp;amp; trust&lt;/i&gt;&lt;/font&gt;&lt;/div&gt;&lt;div&gt;&lt;font face=&quot;Times New Roman&quot; size=&quot;3&quot;&gt;&lt;i&gt;2. Peer influence&lt;/i&gt;&lt;/font&gt;&lt;/div&gt;&lt;div&gt;&lt;font face=&quot;Times New Roman&quot; size=&quot;3&quot;&gt;&lt;i&gt;3. Online reviews &amp;amp; word-of-mouth&lt;/i&gt;&lt;/font&gt;&lt;/div&gt;" style="rounded=0;whiteSpace=wrap;html=1;align=left;verticalAlign=top;spacingLeft=4;fillColor=#FFFFFF;strokeColor=#000000;strokeWidth=3;" vertex="1" parent="1">
          <mxGeometry x="161" y="1680" width="340.5" height="100" as="geometry" />
        </mxCell>
        <mxCell id="I1SLYxGWvdEMF7dLtvF2-39" value="&lt;b&gt;&lt;font face=&quot;Times New Roman&quot; style=&quot;font-size: 18px;&quot;&gt;&amp;nbsp; &amp;nbsp; &amp;nbsp;Convenience &amp;amp; Accessibility Factors&lt;/font&gt;&lt;/b&gt;&lt;div&gt;&lt;font face=&quot;Times New Roman&quot; size=&quot;3&quot;&gt;&lt;i&gt;1. Location &amp;amp; proximity&lt;/i&gt;&lt;/font&gt;&lt;/div&gt;&lt;div&gt;&lt;font face=&quot;Times New Roman&quot; size=&quot;3&quot;&gt;&lt;i&gt;2. Booking &amp;amp; service availability&lt;/i&gt;&lt;/font&gt;&lt;/div&gt;" style="rounded=0;whiteSpace=wrap;html=1;align=left;verticalAlign=top;spacingLeft=4;fillColor=#FFFFFF;strokeColor=#000000;strokeWidth=3;" vertex="1" parent="1">
          <mxGeometry x="163" y="1860" width="338.5" height="80" as="geometry" />
        </mxCell>
        <mxCell id="I1SLYxGWvdEMF7dLtvF2-42" value="" style="rounded=0;whiteSpace=wrap;html=1;fillColor=none;strokeColor=#000000;strokeWidth=1;dashed=1;dashPattern=8 8;" vertex="1" parent="1">
          <mxGeometry x="139.75" y="1220" width="380" height="740" as="geometry" />
        </mxCell>
        <mxCell id="I1SLYxGWvdEMF7dLtvF2-44" value="&lt;font face=&quot;Times New Roman&quot; style=&quot;font-size: 18px;&quot;&gt;&lt;i&gt;Independent Variable (IVs)&lt;/i&gt;&lt;/font&gt;" style="text;html=1;align=center;verticalAlign=middle;whiteSpace=wrap;rounded=0;strokeColor=none;strokeWidth=3;" vertex="1" parent="1">
          <mxGeometry x="211.25" y="1230" width="248.75" height="30" as="geometry" />
        </mxCell>
        <mxCell id="I1SLYxGWvdEMF7dLtvF2-45" value="&lt;div&gt;&lt;font style=&quot;font-size: 18px;&quot; face=&quot;Times New Roman&quot;&gt;&lt;b&gt;Perceived Benefit&lt;/b&gt;&lt;/font&gt;&lt;/div&gt;" style="rounded=0;whiteSpace=wrap;html=1;fillColor=#FFFFFF;strokeColor=#000000;strokeWidth=3;" vertex="1" parent="1">
          <mxGeometry x="820" y="1530" width="200" height="70" as="geometry" />
        </mxCell>
        <mxCell id="I1SLYxGWvdEMF7dLtvF2-46" value="&lt;div&gt;&lt;font style=&quot;font-size: 18px;&quot; face=&quot;Times New Roman&quot;&gt;&lt;b&gt;Customer Satisfaction&lt;/b&gt;&lt;/font&gt;&lt;/div&gt;" style="rounded=0;whiteSpace=wrap;html=1;fillColor=#FFFFFF;strokeColor=#000000;strokeWidth=3;" vertex="1" parent="1">
          <mxGeometry x="820" y="1680" width="200" height="70" as="geometry" />
        </mxCell>
        <mxCell id="I1SLYxGWvdEMF7dLtvF2-47" value="" style="rounded=0;whiteSpace=wrap;html=1;fillColor=none;strokeColor=#000000;strokeWidth=1;dashed=1;dashPattern=8 8;" vertex="1" parent="1">
          <mxGeometry x="800" y="1470" width="240" height="300" as="geometry" />
        </mxCell>
        <mxCell id="I1SLYxGWvdEMF7dLtvF2-48" value="&lt;font face=&quot;Times New Roman&quot; style=&quot;font-size: 18px;&quot;&gt;&lt;i&gt;Mediating Variable (MV)&lt;/i&gt;&lt;/font&gt;" style="text;html=1;align=center;verticalAlign=middle;whiteSpace=wrap;rounded=0;strokeColor=none;strokeWidth=3;" vertex="1" parent="1">
          <mxGeometry x="800" y="1480" width="248.75" height="30" as="geometry" />
        </mxCell>
        <mxCell id="I1SLYxGWvdEMF7dLtvF2-49" value="&lt;b&gt;&lt;font style=&quot;font-size: 18px;&quot; face=&quot;Times New Roman&quot;&gt;Gender&lt;/font&gt;&lt;/b&gt;" style="rounded=0;whiteSpace=wrap;html=1;fillColor=#FFFFFF;strokeColor=#000000;strokeWidth=3;" vertex="1" parent="1">
          <mxGeometry x="1010" y="1830" width="120" height="60" as="geometry" />
        </mxCell>
        <mxCell id="I1SLYxGWvdEMF7dLtvF2-50" value="&lt;b&gt;&lt;font style=&quot;font-size: 18px;&quot; face=&quot;Times New Roman&quot;&gt;Age group&lt;/font&gt;&lt;/b&gt;" style="rounded=0;whiteSpace=wrap;html=1;fillColor=#FFFFFF;strokeColor=#000000;strokeWidth=3;" vertex="1" parent="1">
          <mxGeometry x="1210" y="1830" width="120" height="60" as="geometry" />
        </mxCell>
        <mxCell id="I1SLYxGWvdEMF7dLtvF2-51" value="" style="rounded=0;whiteSpace=wrap;html=1;fillColor=none;strokeColor=#000000;strokeWidth=1;dashed=1;dashPattern=8 8;" vertex="1" parent="1">
          <mxGeometry x="990" y="1800" width="359.68" height="130" as="geometry" />
        </mxCell>
        <mxCell id="I1SLYxGWvdEMF7dLtvF2-52" value="&lt;font face=&quot;Times New Roman&quot; style=&quot;font-size: 18px;&quot;&gt;&lt;i&gt;Moderating Variable (MV)&lt;/i&gt;&lt;/font&gt;" style="text;html=1;align=center;verticalAlign=middle;whiteSpace=wrap;rounded=0;strokeColor=none;strokeWidth=3;" vertex="1" parent="1">
          <mxGeometry x="1040" y="1900" width="248.75" height="30" as="geometry" />
        </mxCell>
        <mxCell id="I1SLYxGWvdEMF7dLtvF2-53" value="&lt;b&gt;&lt;font style=&quot;font-size: 16px;&quot; face=&quot;Times New Roman&quot;&gt;&amp;nbsp;&lt;/font&gt;&lt;font style=&quot;font-size: 18px;&quot; face=&quot;Times New Roman&quot;&gt;Dependent Variable (DV)&lt;/font&gt;&lt;/b&gt;&lt;div&gt;&lt;font size=&quot;3&quot; face=&quot;Times New Roman&quot;&gt;&lt;i&gt;Decision to Choose Massage Therapy Services&lt;/i&gt;&lt;/font&gt;&lt;/div&gt;" style="rounded=1;whiteSpace=wrap;html=1;fillColor=#FFFFFF;strokeColor=#000000;shadow=1;strokeWidth=3;" vertex="1" parent="1">
          <mxGeometry x="1288.75" y="1570" width="240" height="110" as="geometry" />
        </mxCell>
        <mxCell id="I1SLYxGWvdEMF7dLtvF2-56" value="" style="endArrow=none;html=1;rounded=0;exitX=1;exitY=0.5;exitDx=0;exitDy=0;entryX=1;entryY=0.5;entryDx=0;entryDy=0;" edge="1" parent="1" source="I1SLYxGWvdEMF7dLtvF2-36" target="I1SLYxGWvdEMF7dLtvF2-39">
          <mxGeometry width="50" height="50" relative="1" as="geometry">
            <mxPoint x="600" y="1350" as="sourcePoint" />
            <mxPoint x="600" y="1640" as="targetPoint" />
            <Array as="points">
              <mxPoint x="600" y="1340" />
              <mxPoint x="600" y="1900" />
            </Array>
          </mxGeometry>
        </mxCell>
        <mxCell id="I1SLYxGWvdEMF7dLtvF2-57" value="" style="endArrow=none;html=1;rounded=0;exitX=1;exitY=0.5;exitDx=0;exitDy=0;" edge="1" parent="1" source="I1SLYxGWvdEMF7dLtvF2-37">
          <mxGeometry width="50" height="50" relative="1" as="geometry">
            <mxPoint x="520" y="1565" as="sourcePoint" />
            <mxPoint x="600" y="1540" as="targetPoint" />
          </mxGeometry>
        </mxCell>
        <mxCell id="I1SLYxGWvdEMF7dLtvF2-58" value="" style="endArrow=none;html=1;rounded=0;exitX=0.999;exitY=0.583;exitDx=0;exitDy=0;exitPerimeter=0;" edge="1" parent="1" source="I1SLYxGWvdEMF7dLtvF2-38">
          <mxGeometry width="50" height="50" relative="1" as="geometry">
            <mxPoint x="530" y="1740" as="sourcePoint" />
            <mxPoint x="600" y="1738" as="targetPoint" />
          </mxGeometry>
        </mxCell>
        <mxCell id="I1SLYxGWvdEMF7dLtvF2-59" value="" style="endArrow=none;html=1;rounded=0;" edge="1" parent="1">
          <mxGeometry width="50" height="50" relative="1" as="geometry">
            <mxPoint x="600" y="1640" as="sourcePoint" />
            <mxPoint x="690" y="1640" as="targetPoint" />
          </mxGeometry>
        </mxCell>
        <mxCell id="I1SLYxGWvdEMF7dLtvF2-60" value="" style="endArrow=classic;html=1;rounded=0;entryX=0;entryY=0.5;entryDx=0;entryDy=0;" edge="1" parent="1" target="I1SLYxGWvdEMF7dLtvF2-45">
          <mxGeometry width="50" height="50" relative="1" as="geometry">
            <mxPoint x="690" y="1640" as="sourcePoint" />
            <mxPoint x="780" y="1570" as="targetPoint" />
            <Array as="points">
              <mxPoint x="690" y="1565" />
            </Array>
          </mxGeometry>
        </mxCell>
        <mxCell id="I1SLYxGWvdEMF7dLtvF2-61" value="" style="endArrow=classic;html=1;rounded=0;entryX=0;entryY=0.571;entryDx=0;entryDy=0;entryPerimeter=0;" edge="1" parent="1" target="I1SLYxGWvdEMF7dLtvF2-46">
          <mxGeometry width="50" height="50" relative="1" as="geometry">
            <mxPoint x="690" y="1640" as="sourcePoint" />
            <mxPoint x="760" y="1620" as="targetPoint" />
            <Array as="points">
              <mxPoint x="690" y="1720" />
            </Array>
          </mxGeometry>
        </mxCell>
        <mxCell id="I1SLYxGWvdEMF7dLtvF2-62" value="" style="endArrow=none;html=1;rounded=0;entryX=1;entryY=0.5;entryDx=0;entryDy=0;exitX=1.004;exitY=0.584;exitDx=0;exitDy=0;exitPerimeter=0;" edge="1" parent="1" source="I1SLYxGWvdEMF7dLtvF2-46" target="I1SLYxGWvdEMF7dLtvF2-45">
          <mxGeometry width="50" height="50" relative="1" as="geometry">
            <mxPoint x="1048.75" y="1630" as="sourcePoint" />
            <mxPoint x="1098.75" y="1580" as="targetPoint" />
            <Array as="points">
              <mxPoint x="1060" y="1721" />
              <mxPoint x="1060" y="1565" />
            </Array>
          </mxGeometry>
        </mxCell>
        <mxCell id="I1SLYxGWvdEMF7dLtvF2-63" value="" style="endArrow=classic;html=1;rounded=0;entryX=0.004;entryY=0.552;entryDx=0;entryDy=0;entryPerimeter=0;" edge="1" parent="1" target="I1SLYxGWvdEMF7dLtvF2-53">
          <mxGeometry width="50" height="50" relative="1" as="geometry">
            <mxPoint x="1060" y="1630" as="sourcePoint" />
            <mxPoint x="1147.9199999999998" y="1630.2800000000002" as="targetPoint" />
          </mxGeometry>
        </mxCell>
        <mxCell id="I1SLYxGWvdEMF7dLtvF2-65" value="" style="endArrow=none;html=1;rounded=0;exitX=0.5;exitY=0;exitDx=0;exitDy=0;entryX=0.5;entryY=0;entryDx=0;entryDy=0;" edge="1" parent="1" source="I1SLYxGWvdEMF7dLtvF2-49" target="I1SLYxGWvdEMF7dLtvF2-50">
          <mxGeometry width="50" height="50" relative="1" as="geometry">
            <mxPoint x="1060" y="1810" as="sourcePoint" />
            <mxPoint x="1210" y="1790" as="targetPoint" />
            <Array as="points">
              <mxPoint x="1070" y="1810" />
              <mxPoint x="1270" y="1810" />
            </Array>
          </mxGeometry>
        </mxCell>
        <mxCell id="I1SLYxGWvdEMF7dLtvF2-66" value="" style="endArrow=classic;html=1;rounded=0;" edge="1" parent="1">
          <mxGeometry width="50" height="50" relative="1" as="geometry">
            <mxPoint x="1170" y="1810" as="sourcePoint" />
            <mxPoint x="1170" y="1630" as="targetPoint" />
          </mxGeometry>
        </mxCell>
      </root>
    </mxGraphModel>
  </diagram>
</mxfile>
